HIERARCHY
ROOT Root
{
  OFFSET 0.0 0.0 0.0
  CHANNELS 6 Xposition Yposition Zposition Zrotation Yrotation Xrotation
  JOINT Hips
  {
    OFFSET 0.0 100.0 0.0
    CHANNELS 6 Xposition Yposition Zposition Zrotation Yrotation Xrotation
    JOINT Spine1
    {
      OFFSET 5.003913 -0.037094 -0.013727
      CHANNELS 3 Zrotation Yrotation Xrotation
      JOINT Spine2
      {
        OFFSET 7.125363 -1e-06 0.0
        CHANNELS 3 Zrotation Yrotation Xrotation
        JOINT Chest
        {
          OFFSET 7.594027 1e-06 0.0
          CHANNELS 3 Zrotation Yrotation Xrotation
          JOINT Neck1
          {
            OFFSET 26.313086 -0.460272 -0.181672
            CHANNELS 3 Zrotation Yrotation Xrotation
            JOINT Neck2
            {
              OFFSET 8.045911 0.0 0.0
              CHANNELS 3 Zrotation Yrotation Xrotation
              JOINT Head
              {
                OFFSET 6.432774 0.0 0.0
                CHANNELS 3 Zrotation Yrotation Xrotation
                JOINT HeadEnd
                {
                  OFFSET 16.169773 0.06451 0.00362
                  CHANNELS 3 Zrotation Yrotation Xrotation
                }
                JOINT Jaw
                {
                  OFFSET 0.108741 3.12938 0.002639
                  CHANNELS 3 Zrotation Yrotation Xrotation
                }
                JOINT LeftEye
                {
                  OFFSET 4.45173 8.166359 3.206392
                  CHANNELS 3 Zrotation Yrotation Xrotation
                }
                JOINT RightEye
                {
                  OFFSET 4.436895 8.135758 -3.222429
                  CHANNELS 3 Zrotation Yrotation Xrotation
                }
              }
            }
          }
          JOINT LeftShoulder
          {
            OFFSET 23.218927 5.195579 1.621656
            CHANNELS 3 Zrotation Yrotation Xrotation
            JOINT LeftArm
            {
              OFFSET 15.902118 2e-06 -2e-06
              CHANNELS 3 Zrotation Yrotation Xrotation
              JOINT LeftForeArm
              {
                OFFSET 28.739307 0.0 -1e-06
                CHANNELS 3 Zrotation Yrotation Xrotation
                JOINT LeftHand
                {
                  OFFSET 27.093981 -4e-06 0.0
                  CHANNELS 3 Zrotation Yrotation Xrotation
                  JOINT LeftHandThumb1
                  {
                    OFFSET 2.276781 3.380274 0.83384
                    CHANNELS 3 Zrotation Yrotation Xrotation
                    JOINT LeftHandThumb2
                    {
                      OFFSET 4.705309 -1e-06 -1e-06
                      CHANNELS 3 Zrotation Yrotation Xrotation
                      JOINT LeftHandThumb3
                      {
                        OFFSET 2.798515 0.0 3e-06
                        CHANNELS 3 Zrotation Yrotation Xrotation
                        JOINT LeftHandThumbEnd
                        {
                          OFFSET 3.180793 4e-06 -4e-06
                          CHANNELS 3 Zrotation Yrotation Xrotation
                        }
                      }
                    }
                  }
                  JOINT LeftHandIndex1
                  {
                    OFFSET 3.247786 2.352677 0.137192
                    CHANNELS 3 Zrotation Yrotation Xrotation
                    JOINT LeftHandIndex2
                    {
                      OFFSET 6.367095 1e-06 0.0
                      CHANNELS 3 Zrotation Yrotation Xrotation
                      JOINT LeftHandIndex3
                      {
                        OFFSET 3.662364 0.0 0.0
                        CHANNELS 3 Zrotation Yrotation Xrotation
                        JOINT LeftHandIndex4
                        {
                          OFFSET 2.329242 4e-06 -4e-06
                          CHANNELS 3 Zrotation Yrotation Xrotation
                          JOINT LeftHandIndexEnd
                          {
                            OFFSET 2.767823 1e-06 0.0
                            CHANNELS 3 Zrotation Yrotation Xrotation
                          }
                        }
                      }
                    }
                  }
                  JOINT LeftHandMiddle1
                  {
                    OFFSET 3.163612 0.945023 -0.406112
                    CHANNELS 3 Zrotation Yrotation Xrotation
                    JOINT LeftHandMiddle2
                    {
                      OFFSET 6.276789 3e-06 0.0
                      CHANNELS 3 Zrotation Yrotation Xrotation
                      JOINT LeftHandMiddle3
                      {
                        OFFSET 4.35652 -1e-06 4e-06
                        CHANNELS 3 Zrotation Yrotation Xrotation
                        JOINT LeftHandMiddle4
                        {
                          OFFSET 2.996877 0.0 8e-06
                          CHANNELS 3 Zrotation Yrotation Xrotation
                          JOINT LeftHandMiddleEnd
                          {
                            OFFSET 2.323256 3e-06 -4e-06
                            CHANNELS 3 Zrotation Yrotation Xrotation
                          }
                        }
                      }
                    }
                  }
                  JOINT LeftHandRing1
                  {
                    OFFSET 2.882606 -0.309162 0.107445
                    CHANNELS 3 Zrotation Yrotation Xrotation
                    JOINT LeftHandRing2
                    {
                      OFFSET 6.033198 0.0 4e-06
                      CHANNELS 3 Zrotation Yrotation Xrotation
                      JOINT LeftHandRing3
                      {
                        OFFSET 4.350578 3e-06 0.0
                        CHANNELS 3 Zrotation Yrotation Xrotation
                        JOINT LeftHandRing4
                        {
                          OFFSET 2.651321 2e-06 -7e-06
                          CHANNELS 3 Zrotation Yrotation Xrotation
                          JOINT LeftHandRingEnd
                          {
                            OFFSET 1.937663 1e-06 -4e-06
                            CHANNELS 3 Zrotation Yrotation Xrotation
                          }
                        }
                      }
                    }
                  }
                  JOINT LeftHandPinky1
                  {
                    OFFSET 2.865315 -1.525436 0.575687
                    CHANNELS 3 Zrotation Yrotation Xrotation
                    JOINT LeftHandPinky2
                    {
                      OFFSET 5.54936 1e-06 -8e-06
                      CHANNELS 3 Zrotation Yrotation Xrotation
                      JOINT LeftHandPinky3
                      {
                        OFFSET 3.070974 0.0 -4e-06
                        CHANNELS 3 Zrotation Yrotation Xrotation
                        JOINT LeftHandPinky4
                        {
                          OFFSET 1.549672 1e-06 0.0
                          CHANNELS 3 Zrotation Yrotation Xrotation
                          JOINT LeftHandPinkyEnd
                          {
                            OFFSET 1.952123 0.0 0.0
                            CHANNELS 3 Zrotation Yrotation Xrotation
                          }
                        }
                      }
                    }
                  }
                }
              }
            }
          }
          JOINT RightShoulder
          {
            OFFSET 23.161716 5.296122 -1.380114
            CHANNELS 3 Zrotation Yrotation Xrotation
            JOINT RightArm
            {
              OFFSET -16.027195 -2e-06 1.1e-05
              CHANNELS 3 Zrotation Yrotation Xrotation
              JOINT RightForeArm
              {
                OFFSET -28.736639 4e-06 2e-06
                CHANNELS 3 Zrotation Yrotation Xrotation
                JOINT RightHand
                {
                  OFFSET -27.133619 6e-06 0.0
                  CHANNELS 3 Zrotation Yrotation Xrotation
                  JOINT RightHandThumb1
                  {
                    OFFSET -2.274328 -3.351035 -0.83067
                    CHANNELS 3 Zrotation Yrotation Xrotation
                    JOINT RightHandThumb2
                    {
                      OFFSET -4.703594 -3e-06 2e-06
                      CHANNELS 3 Zrotation Yrotation Xrotation
                      JOINT RightHandThumb3
                      {
                        OFFSET -2.794935 -4e-06 -3e-06
                        CHANNELS 3 Zrotation Yrotation Xrotation
                        JOINT RightHandThumbEnd
                        {
                          OFFSET -3.183852 4e-06 1e-06
                          CHANNELS 3 Zrotation Yrotation Xrotation
                        }
                      }
                    }
                  }
                  JOINT RightHandIndex1
                  {
                    OFFSET -3.253496 -2.33755 -0.127667
                    CHANNELS 3 Zrotation Yrotation Xrotation
                    JOINT RightHandIndex2
                    {
                      OFFSET -6.344434 0.0 0.0
                      CHANNELS 3 Zrotation Yrotation Xrotation
                      JOINT RightHandIndex3
                      {
                        OFFSET -3.654871 0.0 -8e-06
                        CHANNELS 3 Zrotation Yrotation Xrotation
                        JOINT RightHandIndex4
                        {
                          OFFSET -2.327586 -1e-06 0.0
                          CHANNELS 3 Zrotation Yrotation Xrotation
                          JOINT RightHandIndexEnd
                          {
                            OFFSET -2.770001 3e-06 8e-06
                            CHANNELS 3 Zrotation Yrotation Xrotation
                          }
                        }
                      }
                    }
                  }
                  JOINT RightHandMiddle1
                  {
                    OFFSET -3.168223 -0.944764 0.411762
                    CHANNELS 3 Zrotation Yrotation Xrotation
                    JOINT RightHandMiddle2
                    {
                      OFFSET -6.266691 -1e-06 -4e-06
                      CHANNELS 3 Zrotation Yrotation Xrotation
                      JOINT RightHandMiddle3
                      {
                        OFFSET -4.348901 0.0 0.0
                        CHANNELS 3 Zrotation Yrotation Xrotation
                        JOINT RightHandMiddle4
                        {
                          OFFSET -3.00024 2e-06 -4e-06
                          CHANNELS 3 Zrotation Yrotation Xrotation
                          JOINT RightHandMiddleEnd
                          {
                            OFFSET -2.321477 -4e-06 -4e-06
                            CHANNELS 3 Zrotation Yrotation Xrotation
                          }
                        }
                      }
                    }
                  }
                  JOINT RightHandRing1
                  {
                    OFFSET -2.885654 0.293261 -0.119232
                    CHANNELS 3 Zrotation Yrotation Xrotation
                    JOINT RightHandRing2
                    {
                      OFFSET -6.032835 -1e-06 -4e-06
                      CHANNELS 3 Zrotation Yrotation Xrotation
                      JOINT RightHandRing3
                      {
                        OFFSET -4.33881 0.0 -4e-06
                        CHANNELS 3 Zrotation Yrotation Xrotation
                        JOINT RightHandRing4
                        {
                          OFFSET -2.654903 -4e-06 -4e-06
                          CHANNELS 3 Zrotation Yrotation Xrotation
                          JOINT RightHandRingEnd
                          {
                            OFFSET -1.935122 0.0 4e-06
                            CHANNELS 3 Zrotation Yrotation Xrotation
                          }
                        }
                      }
                    }
                  }
                  JOINT RightHandPinky1
                  {
                    OFFSET -2.866241 1.503904 -0.60527
                    CHANNELS 3 Zrotation Yrotation Xrotation
                    JOINT RightHandPinky2
                    {
                      OFFSET -5.553177 -2e-06 0.0
                      CHANNELS 3 Zrotation Yrotation Xrotation
                      JOINT RightHandPinky3
                      {
                        OFFSET -3.062664 -1e-06 -4e-06
                        CHANNELS 3 Zrotation Yrotation Xrotation
                        JOINT RightHandPinky4
                        {
                          OFFSET -1.546529 2e-06 4e-06
                          CHANNELS 3 Zrotation Yrotation Xrotation
                          JOINT RightHandPinkyEnd
                          {
                            OFFSET -1.952341 0.0 -4e-06
                            CHANNELS 3 Zrotation Yrotation Xrotation
                          }
                        }
                      }
                    }
                  }
                }
              }
            }
          }
        }
      }
    }
    JOINT LeftLeg
    {
      OFFSET -8.443107 2.567604 10.043214
      CHANNELS 3 Zrotation Yrotation Xrotation
      JOINT LeftShin
      {
        OFFSET 43.229198 1e-06 -1e-06
        CHANNELS 3 Zrotation Yrotation Xrotation
        JOINT LeftFoot
        {
          OFFSET 42.298611 1e-06 1e-06
          CHANNELS 3 Zrotation Yrotation Xrotation
          JOINT LeftToeBase
          {
            OFFSET 14.165858 1e-06 0.0
            CHANNELS 3 Zrotation Yrotation Xrotation
            JOINT LeftToeEnd
            {
              OFFSET 6.7141 -0.234461 0.0
              CHANNELS 3 Zrotation Yrotation Xrotation
            }
          }
        }
      }
    }
    JOINT RightLeg
    {
      OFFSET -8.303923 2.592729 -10.047278
      CHANNELS 3 Zrotation Yrotation Xrotation
      JOINT RightShin
      {
        OFFSET -43.369682 0.0 1e-06
        CHANNELS 3 Zrotation Yrotation Xrotation
        JOINT RightFoot
        {
          OFFSET -42.260784 4e-06 2e-06
          CHANNELS 3 Zrotation Yrotation Xrotation
          JOINT RightToeBase
          {
            OFFSET -14.222245 -2e-06 -1e-06
            CHANNELS 3 Zrotation Yrotation Xrotation
            JOINT RightToeEnd
            {
              OFFSET -6.660062 0.232574 -2e-06
              CHANNELS 3 Zrotation Yrotation Xrotation
            }
          }
        }
      }
    }
  }
}
MOTION
Frames: 4
Frame Time: 0.03333333333333333
0.0 0.0 0.0 0.0 -0.0 0.0 3.452603 49.641216 121.836685 95.268799 -52.46032 89.761665 10.919518 -0.348666 -2.338871 -4.182704 -1.535642 -3.266987 27.616892 2.925861 -5.079931 23.092077 4.825902 3.704118 -2.721503 -0.777744 1.634843 -33.980316 1.861739 0.460052 6e-06 -0.0 0.0 -0.152574 -0.1447 0.071381 -0.436833 -0.264459 0.045023 -0.371903 -0.038286 0.102677 -6.794788 -66.83847 11.804096 60.781479 6.255867 -50.218811 21.467323 -0.220102 0.125435 4.223041 56.273399 5.019174 17.636635 -26.322733 52.411186 -19.46666 -14.395598 29.410385 0.0 -8.774821 -1e-06 16.437548 -18.999104 6.344295 -0.609778 -1.795654 -3.889327 -4.80709 -11.046813 -2.937852 3e-06 -20.976019 2e-06 -5.019972 -25.03356 -4.031881 7e-06 -0.0 1e-06 -10.634535 -5.686971 -3.565587 10.573271 -17.922947 -3.113899 2e-06 -13.821209 3e-06 -0.501779 -31.181505 -4.027016 -11.86352 -59.671444 8.096196 -13.982713 -7.150198 -2.875041 13.772726 -8.401491 -3.218241 0.347731 -34.211552 0.771654 -0.963029 -17.73337 2.621018 -1e-06 -1e-06 -0.0 -17.346422 -20.095217 -4.20178 21.757557 -1.638376 3.866428 0.0 -6.338827 1e-06 -1.697589 -22.591743 -6.194006 -0.0 -7e-06 -2e-06 159.055923 -73.120178 24.566774 97.817131 -10.660614 -39.300625 12.492288 0.070562 0.084393 45.499825 68.410065 45.633667 22.182106 -20.375893 49.933319 -16.701817 -16.743526 28.476538 -4e-06 -12.690601 -1e-06 16.978895 -18.195791 2.354301 -0.105919 -1.513857 -4.275881 -5.039041 -5.612873 -2.953557 4e-06 -11.020523 -1e-06 -6.111297 -15.895336 -3.84047 -1e-06 1e-06 -2e-06 -10.283369 -5.680288 -4.341838 11.028296 -11.302407 -2.372635 -1.384269 -14.238584 -6.320123 -0.625437 -26.924191 -3.827604 -4.212064 -49.618374 -4.39 -13.708522 -7.363477 -3.72094 18.14115 -14.052739 -3.242677 6e-06 -18.787271 -3e-06 -0.429711 -8.456045 2.555503 -0.0 -1e-06 1e-06 -15.923534 -20.094486 -5.473586 30.41921 -7.190826 1.735924 2e-06 -8.162925 0.0 -1.861901 -22.861469 -6.167943 -0.0 -3e-06 -1e-06 139.101913 0.892554 4.185238 96.32618 -1.481154 0.092449 -80.536407 15.382951 3.345097 -40.512917 1.454497 1.189002 -0.999999 -0.0 0.0 -82.320648 -7.704711 1.680258 132.541489 1.111903 0.260219 -51.347019 1.507474 -0.59546 -16.234818 0.834755 1.685958 -1.000002 0.0 0.0 
0.0 0.0 0.0 0.0 -0.0 0.0 3.045295 49.240013 123.214195 94.658134 -51.539055 91.290428 11.109066 -0.161535 -2.440157 -4.088359 -1.530215 -3.546159 28.02536 3.318698 -5.362361 23.379625 5.359108 3.754073 -2.729329 -0.879778 1.367656 -34.337654 1.766342 0.301022 7e-06 -0.0 0.0 -0.152382 -0.150251 0.071853 -0.440834 -0.287712 0.050515 -0.372935 -0.026062 0.098756 -6.07675 -66.326851 11.196208 61.50787 6.339743 -48.838768 19.487734 -0.291276 0.078484 2.489274 56.525547 3.188536 17.636625 -26.322721 52.411179 -19.466654 -14.395596 29.410378 -2e-06 -8.77482 -1e-06 16.461956 -18.867571 6.2264 -0.609776 -1.795653 -3.889326 -4.807087 -11.046804 -2.93785 6e-06 -20.976006 1e-06 -5.019966 -25.033545 -4.031879 6e-06 -1e-06 -0.0 -10.634529 -5.686966 -3.565584 10.573272 -17.922945 -3.113899 3e-06 -13.821204 1e-06 -0.501776 -31.181488 -4.027015 -11.826028 -59.658241 8.044369 -13.98271 -7.150193 -2.875041 13.77273 -8.401489 -3.218241 0.347735 -34.211536 0.771655 -0.963026 -17.733358 2.621018 -1e-06 -1e-06 -1e-06 -17.346411 -20.095203 -4.20178 21.757551 -1.638378 3.866424 2e-06 -6.338821 1e-06 -1.697587 -22.591734 -6.194005 -0.0 -6e-06 -1e-06 158.307709 -73.744926 25.926575 97.813927 -11.551293 -39.258984 12.839432 0.035846 0.099069 47.844315 68.793762 48.334167 22.182123 -20.375889 49.933308 -16.701811 -16.743526 28.476526 -2e-06 -12.6906 -2e-06 17.003729 -18.201092 2.291786 -0.105919 -1.513855 -4.275881 -5.039041 -5.612869 -2.953557 6e-06 -11.020519 -1e-06 -6.111294 -15.895328 -3.840472 -0.0 -0.0 -1e-06 -10.28337 -5.680285 -4.341839 11.028295 -11.302406 -2.372632 -1.384268 -14.238577 -6.32012 -0.625436 -26.924183 -3.827599 -4.174184 -49.57288 -4.486238 -13.708526 -7.363474 -3.720941 18.141151 -14.052737 -3.24267 7e-06 -18.787268 -1e-06 -0.429711 -8.456043 2.555504 -0.0 -1e-06 1e-06 -15.923538 -20.094481 -5.473587 30.41921 -7.190827 1.73593 3e-06 -8.162921 1e-06 -1.8619 -22.861464 -6.167941 -0.0 -4e-06 -1e-06 141.749847 0.540805 4.917922 94.330185 -1.733909 0.108158 -78.758629 16.372936 3.793179 -40.671844 1.45588 1.17381 -0.999997 -1e-06 -0.0 -83.324509 -7.686253 1.113454 133.498367 1.313591 0.272523 -50.979507 2.155757 -0.57235 -17.06439 0.867107 1.620861 -1.000003 -0.0 0.0 
0.0 0.0 0.0 0.0 -0.0 0.0 2.647754 48.776505 124.58168 94.193497 -50.716644 92.665375 11.237367 0.008558 -2.521691 -4.0337 -1.508718 -3.777492 28.332945 3.632351 -5.581778 23.669636 5.888233 3.836784 -2.730632 -0.962867 1.057297 -34.576641 1.558091 0.074989 5e-06 1e-06 0.0 -0.153361 -0.142302 0.066334 -0.444539 -0.290078 0.047876 -0.372306 -0.007237 0.090346 -5.713709 -65.839272 10.894223 62.641949 6.0571 -47.514553 17.922661 -0.346351 0.036549 1.026733 56.954178 1.584371 17.636641 -26.322731 52.411198 -19.466663 -14.395594 29.410385 -0.0 -8.774821 -2e-06 16.489819 -18.755989 6.127996 -0.609777 -1.795654 -3.889327 -4.807091 -11.046811 -2.937852 4e-06 -20.976019 1e-06 -5.01997 -25.033556 -4.031884 6e-06 1e-06 1e-06 -10.634535 -5.686972 -3.565589 10.573272 -17.922951 -3.113899 2e-06 -13.821212 1e-06 -0.501776 -31.181507 -4.027017 -11.762856 -59.640694 7.958426 -13.982718 -7.150198 -2.875044 13.772731 -8.401493 -3.21824 0.347733 -34.211555 0.771654 -0.963029 -17.733372 2.621021 -0.0 -0.0 0.0 -17.346422 -20.095219 -4.201784 21.757559 -1.638375 3.866431 1e-06 -6.338824 1e-06 -1.697589 -22.591747 -6.194009 -0.0 -5e-06 -2e-06 157.478622 -74.401222 27.372694 97.687424 -12.591459 -39.180267 13.136456 -0.021162 0.120056 50.121887 69.154633 51.002541 22.182119 -20.375895 49.933323 -16.701813 -16.74353 28.47653 -3e-06 -12.690601 -1e-06 17.047491 -18.187429 2.209775 -0.10592 -1.513856 -4.275882 -5.039041 -5.612873 -2.953557 4e-06 -11.020523 -1e-06 -6.111296 -15.89533 -3.840473 1e-06 1e-06 0.0 -10.283371 -5.680288 -4.34184 11.028295 -11.302402 -2.372632 -1.384268 -14.238581 -6.320121 -0.625437 -26.924187 -3.8276 -4.127105 -49.517807 -4.57437 -13.708526 -7.363475 -3.720941 18.14115 -14.052739 -3.242675 8e-06 -18.787264 -3e-06 -0.429711 -8.456043 2.555503 -0.0 -1e-06 1e-06 -15.923538 -20.094479 -5.473586 30.41921 -7.190827 1.735923 2e-06 -8.162922 1e-06 -1.861901 -22.861467 -6.167942 0.0 -4e-06 0.0 144.261414 0.160858 5.582965 92.313431 -1.971051 0.122519 -76.719223 17.430017 4.266884 -40.754066 1.460178 1.140927 -0.999998 -1e-06 -0.0 -83.375397 -7.90455 0.593077 133.771454 1.430383 0.293079 -50.242558 2.764136 -0.75522 -18.174635 0.88727 1.579812 -1.000001 -0.0 0.0 
0.0 0.0 0.0 0.0 -0.0 0.0 2.293777 48.337231 125.876701 93.857368 -50.093632 93.805794 11.297784 0.131414 -2.572875 -4.006646 -1.470111 -3.933912 28.506914 3.864246 -5.698089 23.89991 6.363509 3.953219 -2.721489 -1.023794 0.720008 -34.656044 1.285838 -0.198603 7e-06 -1e-06 0.0 -0.153366 -0.127368 0.059294 -0.448097 -0.272176 0.042192 -0.368549 0.004756 0.081542 -5.731055 -65.367661 10.857893 64.119598 5.467034 -46.249157 16.754953 -0.384009 0.008753 -0.313207 57.574734 0.040428 17.636631 -26.322723 52.411182 -19.466663 -14.395596 29.410385 -1e-06 -8.774821 -2e-06 16.527334 -18.649841 6.015791 -0.609776 -1.795653 -3.889327 -4.807088 -11.04681 -2.937851 6e-06 -20.976011 -0.0 -5.019967 -25.033552 -4.031882 6e-06 0.0 1e-06 -10.634532 -5.686968 -3.565587 10.573272 -17.922951 -3.113901 3e-06 -13.821205 0.0 -0.501774 -31.181501 -4.027017 -11.588368 -59.545578 7.767041 -13.982711 -7.150197 -2.875042 13.77273 -8.401491 -3.218242 0.347736 -34.211544 0.771653 -0.963027 -17.733366 2.621019 -0.0 0.0 1e-06 -17.346413 -20.095213 -4.201784 21.757555 -1.638377 3.866428 1e-06 -6.338822 1e-06 -1.697586 -22.591742 -6.194007 -0.0 -5e-06 -2e-06 156.751816 -75.066795 28.690186 97.373161 -13.755273 -39.168682 13.481705 -0.09735 0.129917 52.47187 69.50354 53.645275 22.182106 -20.375891 49.933308 -16.701817 -16.743528 28.476532 -2e-06 -12.6906 1e-06 17.065128 -18.170511 2.143727 -0.105916 -1.513854 -4.27588 -5.039041 -5.612872 -2.953556 5e-06 -11.020521 -1e-06 -6.111295 -15.89533 -3.84047 1e-06 1e-06 1e-06 -10.283367 -5.680286 -4.341837 11.028293 -11.302405 -2.372633 -1.384269 -14.238583 -6.32012 -0.625436 -26.924187 -3.827601 -4.127217 -49.465569 -4.583596 -13.708521 -7.363473 -3.720937 18.141146 -14.052739 -3.242676 7e-06 -18.787268 -3e-06 -0.429711 -8.456045 2.555504 0.0 -1e-06 -1e-06 -15.923532 -20.094479 -5.473583 30.419207 -7.190823 1.735922 1e-06 -8.162924 -0.0 -1.861901 -22.861467 -6.167941 -0.0 -3e-06 -2e-06 146.454727 -0.234384 6.114477 90.357117 -2.175742 0.143075 -74.740036 18.366713 4.703842 -40.792599 1.45995 1.078248 -0.999999 -0.0 0.0 -82.587547 -8.228606 0.061732 133.616013 1.487429 0.292334 -49.518543 3.308693 -1.299887 -19.150269 0.878823 1.590872 -1.000003 -0.0 -0.0 
